<svg width="30" height="30" viewBox="0 0 30 30" fill="none" xmlns="http://www.w3.org/2000/svg">
<g clip-path="url(#clip0_5586_20192)">
<path d="M15.3906 8.02734L23.657 22.345" stroke="white" stroke-width="2.14286" stroke-linecap="round" stroke-linejoin="round"/>
<path d="M23.2217 21.5918L2.84421 26.3235L1.53906 24.0628L15.8256 8.78125" stroke="white" stroke-width="2.14286" stroke-linecap="round" stroke-linejoin="round"/>
<path d="M7.2793 25.2929L8.40136 27.2363C8.80842 27.934 9.47594 28.4414 10.2571 28.6469C11.0382 28.8522 11.869 28.739 12.5667 28.3319C13.2643 27.925 13.7717 27.2575 13.9772 26.4762C14.1827 25.6951 14.0695 24.8643 13.6624 24.1666L13.4827 23.8555" stroke="white" stroke-width="2.14286" stroke-linecap="round" stroke-linejoin="round"/>
<path d="M15.9512 3.93604V1.25" stroke="white" stroke-width="2.14286" stroke-linecap="round" stroke-linejoin="round"/>
<path d="M26.2422 14.2188H28.9283" stroke="white" stroke-width="2.14286" stroke-linecap="round" stroke-linejoin="round"/>
<path d="M2.97461 14.2188H5.66064" stroke="white" stroke-width="2.14286" stroke-linecap="round" stroke-linejoin="round"/>
<path d="M6.77734 5.04688L8.67667 6.9462" stroke="white" stroke-width="2.14286" stroke-linecap="round" stroke-linejoin="round"/>
<path d="M23.2285 6.9462L25.1277 5.04688" stroke="white" stroke-width="2.14286" stroke-linecap="round" stroke-linejoin="round"/>
</g>
<defs>
<clipPath id="clip0_5586_20192">
<rect width="30" height="30" fill="white"/>
</clipPath>
</defs>
</svg>
