<svg width="30" height="30" viewBox="0 0 30 30" fill="none" xmlns="http://www.w3.org/2000/svg">
<g clip-path="url(#clip0_5617_20672)">
<path d="M28.9275 18.1598V22.4994C28.9275 22.7836 28.8145 23.0562 28.6137 23.2572C28.4127 23.4579 28.1402 23.5709 27.856 23.5709H2.14174C1.85758 23.5709 1.58506 23.4579 1.38413 23.2572C1.18319 23.0562 1.07031 22.7836 1.07031 22.4994V5.35658C1.07031 5.07242 1.18319 4.79989 1.38413 4.59898C1.58506 4.39804 1.85758 4.28516 2.14174 4.28516H9.72953" stroke="white" stroke-width="2.14286" stroke-linecap="round" stroke-linejoin="round"/>
<path d="M12.8577 23.5703L10.7148 28.9275" stroke="white" stroke-width="2.14286" stroke-linecap="round" stroke-linejoin="round"/>
<path d="M17.1426 23.5703L19.2854 28.9275" stroke="white" stroke-width="2.14286" stroke-linecap="round" stroke-linejoin="round"/>
<path d="M8.57031 28.9297H21.4275" stroke="white" stroke-width="2.14286" stroke-linecap="round" stroke-linejoin="round"/>
<path d="M22.0116 1.39663L23.8028 4.99991C23.8429 5.09105 23.9063 5.16993 23.9869 5.22847C24.0672 5.28701 24.1619 5.32314 24.2609 5.33317L28.2391 5.9372C28.3529 5.95198 28.4601 5.99887 28.5481 6.07235C28.6362 6.14581 28.7016 6.24283 28.7365 6.35208C28.7714 6.4613 28.7746 6.57823 28.7455 6.68919C28.7166 6.80015 28.6564 6.90052 28.5724 6.97861L25.6356 9.76959C25.5919 9.85314 25.5689 9.94605 25.5689 10.0404C25.5689 10.1347 25.5919 10.2276 25.6356 10.3111L26.1981 14.2685C26.2221 14.3829 26.2122 14.5018 26.17 14.6108C26.1278 14.7197 26.0549 14.8141 25.96 14.8825C25.8653 14.9508 25.7526 14.9902 25.636 14.9958C25.5192 15.0015 25.4033 14.9731 25.3024 14.9142L21.7615 13.0396C21.67 12.9982 21.5706 12.9768 21.4701 12.9768C21.3694 12.9768 21.27 12.9982 21.1784 13.0396L17.6376 14.9142C17.5366 14.9731 17.4208 15.0015 17.304 14.9958C17.1873 14.9902 17.0747 14.9508 16.9799 14.8825C16.8851 14.8141 16.8121 14.7197 16.7699 14.6108C16.7277 14.5018 16.718 14.3829 16.7419 14.2685L17.4085 10.3111C17.4371 10.2193 17.4426 10.1218 17.4244 10.0273C17.4063 9.93279 17.365 9.84427 17.3043 9.76959L14.3675 6.95778C14.2896 6.87888 14.235 6.78005 14.2095 6.67211C14.184 6.5642 14.1888 6.45136 14.2232 6.34595C14.2576 6.24054 14.3204 6.14664 14.4046 6.07456C14.4889 6.00245 14.5913 5.95492 14.7008 5.9372L18.679 5.354C18.778 5.34397 18.8726 5.30784 18.9531 5.2493C19.0336 5.19076 19.0972 5.11188 19.1372 5.02074L20.9284 1.41745C20.9764 1.31545 21.0519 1.22889 21.1464 1.16757C21.241 1.10624 21.3508 1.07259 21.4634 1.07042C21.5761 1.06826 21.6871 1.09766 21.784 1.15531C21.8809 1.21295 21.9597 1.29654 22.0116 1.39663Z" stroke="white" stroke-width="2.14286" stroke-linecap="round" stroke-linejoin="round"/>
</g>
<defs>
<clipPath id="clip0_5617_20672">
<rect width="30" height="30" fill="white"/>
</clipPath>
</defs>
</svg>
