<svg width="13" height="13" viewBox="0 0 13 13" fill="none" xmlns="http://www.w3.org/2000/svg">
<g clip-path="url(#clip0_5617_20627)">
<path d="M9.76976 1.41797H3.087C2.93294 1.4222 2.78203 1.46265 2.64648 1.53603C2.51093 1.60942 2.39455 1.71369 2.30674 1.84042L0.636058 4.1547C0.512003 4.33008 0.450048 4.5419 0.460026 4.75652C0.470004 4.97115 0.551344 5.17629 0.691136 5.3394L5.70318 11.1159C5.789 11.2266 5.89894 11.3161 6.02463 11.3776C6.15032 11.4392 6.28842 11.4712 6.42837 11.4712C6.56832 11.4712 6.70643 11.4392 6.83211 11.3776C6.9578 11.3161 7.06775 11.2266 7.15356 11.1159L12.1656 5.3394C12.3054 5.17629 12.3867 4.97115 12.3967 4.75652C12.4067 4.5419 12.3448 4.33008 12.2207 4.1547L10.55 1.84042C10.4622 1.71369 10.3459 1.60942 10.2103 1.53603C10.0747 1.46265 9.92377 1.4222 9.76976 1.41797Z" stroke="black" stroke-width="0.918367" stroke-linecap="round" stroke-linejoin="round"/>
<path d="M5.95175 1.40625L3.71094 4.87768L6.4293 11.444" stroke="black" stroke-width="0.918367" stroke-linecap="round" stroke-linejoin="round"/>
<path d="M6.93284 1.40625L9.16447 4.87768L6.42773 11.444" stroke="black" stroke-width="0.918367" stroke-linecap="round" stroke-linejoin="round"/>
<path d="M0.476562 4.87891H12.3786" stroke="black" stroke-width="0.918367" stroke-linecap="round" stroke-linejoin="round"/>
</g>
<defs>
<clipPath id="clip0_5617_20627">
<rect width="12.8571" height="12.8571" fill="white"/>
</clipPath>
</defs>
</svg>
