<svg width="41" height="33" viewBox="0 0 41 33" fill="none" xmlns="http://www.w3.org/2000/svg">
<path d="M5.39501 7.17019C3.75789 8.65221 3.16204 12.0103 6.11329 13.9734L17.8871 22.0511L12.1784 8.97224C10.9821 5.88594 7.70949 5.21292 5.39501 7.17019Z" fill="black"/>
<path d="M15.5332 0.811995C13.6193 0.85099 10.7455 3.13003 12.0244 6.61019L17.9288 20.5351L20.0036 5.88876C20.4837 2.24947 17.7296 0.569493 15.5332 0.811995Z" fill="black"/>
<path d="M20.9219 5.33413H22.0384C22.0384 5.33413 22.6346 5.33413 22.7157 5.61539C22.2764 5.97418 21.0805 6.01914 21.2393 7.9356L23.1161 20.5371L28.9802 6.57564C30.1797 3.4583 27.662 0.854849 25.4287 0.775282C25.3244 0.767799 25.2197 0.761719 25.1113 0.761719C23.1068 0.76166 20.8097 2.21849 20.9219 5.33413Z" fill="black"/>
<path d="M28.7476 9.09081L23.2012 22.0127L34.9715 13.8924C37.6848 11.9679 37.2472 8.89116 35.7284 7.37032C35.0917 6.6545 33.9226 6.10156 32.6842 6.10156C31.2211 6.10127 29.6553 6.8773 28.7476 9.09081Z" fill="black"/>
<path d="M33.6515 15.7272L22.5977 23.4482H36.2081C39.0004 23.4482 40.7949 20.5691 39.9972 17.9271C39.4629 16.2664 37.8822 14.9628 36.0474 14.9609C35.2751 14.9612 34.4561 15.1939 33.6515 15.7272Z" fill="black"/>
<path d="M5.07636 23.4479H18.486L7.42936 15.7269C4.87502 14.0858 2.00287 15.0461 0.965982 17.7695C0.0870559 20.8872 2.28156 23.4479 5.07636 23.4479Z" fill="black"/>
<path d="M0.0429688 29.0357C0.0429688 30.3506 1.11792 32.7442 5.22246 32.7442C9.00674 32.7442 10.2019 31.0077 10.2019 30.2115H7.27221C7.27221 30.2115 7.13307 31.2634 5.48039 31.2634C3.82666 31.2634 3.37943 29.8831 3.37943 29.0849C3.37943 28.2897 3.82666 26.9839 5.48039 26.9839C7.13307 26.9839 7.27221 27.8997 7.27221 27.8997H10.2019C10.2019 27.1026 9.32501 25.3906 5.22246 25.3906C1.11792 25.3906 0.0429688 27.9397 0.0429688 29.0357Z" fill="black"/>
<path d="M30.7695 29.0357C30.7695 30.3506 31.8456 32.7442 35.949 32.7442C39.7329 32.7442 40.9286 31.0077 40.9286 30.2115H38.0009C38.0009 30.2115 37.8612 31.2634 36.2081 31.2634C34.5542 31.2634 34.1065 29.8831 34.1065 29.0849C34.1065 28.2897 34.5542 26.9839 36.2081 26.9839C37.8612 26.9839 38.0009 27.8997 38.0009 27.8997H40.9286C40.9286 27.1026 40.0526 25.3906 35.949 25.3906C31.8456 25.3906 30.7695 27.9397 30.7695 29.0357Z" fill="black"/>
<path d="M18.208 25.5156V29.967L14.7984 25.5156H10.9629V32.5663H13.5924V28.0637L16.9423 32.5663H20.8376V25.5156H18.208Z" fill="black"/>
<path d="M26.6314 30.8818V30.8911H24.4404V29.5965H26.6314V29.6008C27.0992 29.6008 27.4773 29.8883 27.4773 30.2423C27.4773 30.5955 27.0992 30.8818 26.6314 30.8818ZM24.4605 26.8869H26.5716V26.8899C26.9293 26.8899 27.2193 27.1252 27.2193 27.4148C27.2193 27.7056 26.9293 27.9388 26.5716 27.9388V27.942H24.4605V26.8869ZM28.7832 28.8179C29.2619 28.8179 30.2628 28.2622 30.2628 27.1857C30.2628 25.6527 27.4082 25.5156 26.9703 25.5156H21.7109V32.5663H26.9703C29.4999 32.5663 30.516 31.7671 30.516 30.4327C30.516 29.0982 28.7832 28.8179 28.7832 28.8179Z" fill="black"/>
</svg>
