<svg width="112" height="28" viewBox="0 0 112 28" fill="none" xmlns="http://www.w3.org/2000/svg">
<path d="M63.1605 9.11131C63.1605 5.84923 63.2167 2.81213 63.3855 0L54.7803 1.63104V2.41843L55.624 2.53092C56.2426 2.58716 56.6363 2.81213 56.8613 3.14959C57.0863 3.54329 57.255 4.10571 57.3675 4.94935C57.48 6.58039 57.5925 10.2924 57.5362 16.1416C57.5362 21.9346 57.48 25.5904 57.3675 26.9965C60.4608 27.6714 62.8793 27.9526 64.679 27.9526C68.0536 27.9526 70.697 26.9965 72.6093 25.028C74.5215 23.1157 75.5339 20.4161 75.5339 17.0978C75.5339 14.4544 74.8027 12.2609 73.3404 10.5174C71.8781 8.77385 70.0221 7.93021 67.8286 7.93021C66.3663 7.93021 64.8478 8.32391 63.1605 9.11131ZM63.3292 26.434C63.2167 24.6343 63.1042 19.235 63.1042 10.4049C63.6104 10.2362 64.2853 10.1237 65.129 10.1237C66.4788 10.1237 67.5474 10.7986 68.3348 12.2047C69.1222 13.6107 69.5159 15.298 69.5159 17.4352C69.5159 20.0786 69.066 22.2158 68.1661 24.0156C67.2662 25.7591 66.1413 26.659 64.7353 26.659C64.2853 26.5465 63.8354 26.4903 63.3292 26.434ZM22.4971 0.562426H0V1.68728L1.1811 1.79976C2.08098 1.96849 2.69965 2.30595 3.09335 2.81213C3.48704 3.37456 3.71201 4.27444 3.76826 5.51178C4.2182 11.586 4.2182 17.2665 3.76826 22.4971C3.65577 23.7344 3.4308 24.6343 3.09335 25.1967C2.69965 25.7591 2.08098 26.0966 1.1811 26.2091L0 26.3778V27.5027H14.5106V26.3778L12.9921 26.2653C12.6215 26.2343 12.2611 26.1286 11.9324 25.9546C11.6038 25.7807 11.3138 25.542 11.0798 25.2529C10.6861 24.6905 10.4611 23.7906 10.4049 22.5533C10.2362 20.3036 10.1237 17.7164 10.1237 14.8481L13.1608 14.9043C14.7918 14.9605 15.9167 16.1979 16.4791 18.6726H17.6039V9.50501H16.4791C15.9167 11.9234 14.8481 13.1608 13.1608 13.217L10.1237 13.2733C10.1237 8.21143 10.2362 4.6119 10.4049 2.41843H14.8481C17.9976 2.41843 20.1349 4.44317 21.3722 8.49264L22.722 8.09894L22.4971 0.562426ZM19.8537 17.8852C19.8537 20.8098 20.6973 23.2282 22.3283 25.1405C23.9594 27.0527 26.3778 27.9526 29.4149 27.9526C32.452 27.9526 34.9267 26.9965 36.7264 25.028C38.5262 23.1157 39.3698 20.6973 39.3698 17.7727C39.3698 14.8481 38.5262 12.4296 36.8952 10.5174C35.2641 8.60512 32.8457 7.70524 29.8086 7.70524C26.7715 7.70524 24.2968 8.66137 22.4971 10.6299C20.6973 12.5421 19.8537 14.9605 19.8537 17.8852ZM32.3958 11.4735C33.0707 13.1045 33.3519 15.2418 33.3519 17.8289C33.3519 23.7906 32.1145 26.7153 29.6961 26.7153C28.4588 26.7153 27.5027 25.8716 26.8277 24.1843C26.1528 22.4971 25.8716 20.3598 25.8716 17.8289C25.8716 11.9234 27.109 8.99882 29.5274 8.99882C30.7647 8.94258 31.7208 9.78622 32.3958 11.4735ZM79.9208 25.1405C81.7768 26.9965 84.139 27.9526 86.9511 27.9526C88.6946 27.9526 90.2132 27.6151 91.563 26.884C92.9128 26.2091 93.9814 25.3654 94.7126 24.3531L94.1502 23.6782C92.9128 24.6343 91.5068 25.0842 89.8757 25.0842C87.626 25.0842 85.8825 24.3531 84.7014 22.8345C83.4641 21.316 82.9016 19.4037 83.0141 16.929H95.0501C95.0501 14.2294 94.3752 12.0359 92.9691 10.2924C91.563 8.60512 89.5945 7.76148 87.0636 7.76148C83.914 7.76148 81.4956 8.77385 79.7521 10.7423C78.0085 12.7108 77.1649 15.1293 77.1649 17.9976C77.1649 20.9223 78.0648 23.2845 79.9208 25.1405ZM84.0827 11.0236C84.7014 9.67373 85.4888 8.99882 86.5574 8.99882C88.2447 8.99882 89.0883 11.136 89.0883 15.4667L83.1266 15.5792C83.1829 13.8919 83.4641 12.3734 84.0827 11.0236ZM110.179 8.77385C108.661 8.09894 106.749 7.70524 104.443 7.70524C102.08 7.70524 100.224 8.32391 98.8183 9.50501C97.4122 10.6861 96.6811 12.1484 96.6811 13.8919C96.6811 15.4105 97.131 16.5916 97.9747 17.4352C98.8183 18.2789 100.168 19.01 101.912 19.6287C103.486 20.1911 104.611 20.7535 105.174 21.2597C105.736 21.8221 106.074 22.4408 106.074 23.2845C106.074 24.0718 105.792 24.803 105.174 25.3654C104.611 25.9841 103.824 26.2653 102.812 26.2653C100.337 26.2653 98.4809 24.4655 97.1873 20.866L96.2312 21.1472L96.4561 26.7715C98.4809 27.5589 100.731 27.9526 103.205 27.9526C105.792 27.9526 107.761 27.3902 109.223 26.2091C110.686 25.0842 111.417 23.4532 111.417 21.4284C111.417 20.0786 111.079 18.9538 110.348 18.1101C109.617 17.2665 108.436 16.5353 106.749 15.8604C104.893 15.1855 103.599 14.5668 102.924 14.0044C102.249 13.442 101.912 12.7671 101.912 11.9234C101.912 11.0798 102.137 10.4049 102.643 9.84246C103.149 9.28004 103.768 9.05507 104.555 9.05507C106.805 9.05507 108.436 10.6861 109.448 13.8919L110.404 13.6107L110.179 8.77385ZM56.0739 8.26767C55.2865 7.87397 54.4429 7.70524 53.4867 7.70524C52.5306 7.70524 51.5745 8.09894 50.5059 8.88634C49.4373 9.67373 48.6499 10.7423 48.0312 12.2047L48.0875 7.70524L39.5386 9.39252V10.1799L40.3822 10.2362C41.4508 10.3486 42.0695 11.1923 42.182 12.7108C42.5194 16.1979 42.5194 19.9099 42.182 23.8469C42.0695 25.3654 41.4508 26.1528 40.3822 26.3216L39.5386 26.434V27.5027H51.462V26.434L49.9435 26.3216C48.8749 26.2091 48.2562 25.3654 48.1437 23.8469C47.8062 20.5848 47.75 17.0978 48.0312 13.4982C48.3687 12.9358 49.0998 12.5984 50.2247 12.4859C51.3495 12.3734 52.6431 12.7108 53.9929 13.4982L56.0739 8.26767Z" fill="#4F94E6"/>
</svg>
