<svg width="91" height="28" viewBox="0 0 91 28" fill="none" xmlns="http://www.w3.org/2000/svg">
<path fill-rule="evenodd" clip-rule="evenodd" d="M6.986 28H9.0825V16.8H6.986V28ZM14.6711 27.832H16.5489V20.7655L24.4528 28V16.968H22.5803V23.9138L14.6711 16.8V27.832ZM28.7394 25.1195C29.7614 25.9158 30.9881 26.376 32.3033 26.376C33.5843 26.376 34.4829 25.935 34.4829 24.9611C34.4829 24.1124 33.9098 23.7799 32.9061 23.408L31.2813 22.8436C29.7833 22.3116 28.644 21.5346 28.644 19.7488C28.644 17.8386 30.3686 16.8 32.431 16.8C33.6945 16.8 34.846 17.1176 35.7455 17.6803V19.5746C34.8101 18.8834 33.7864 18.4074 32.4713 18.4074C31.339 18.4074 30.4929 18.83 30.4929 19.7111C30.4929 20.5074 31.024 20.8259 31.9594 21.1461L33.7698 21.7814C35.5241 22.3983 36.3291 23.3546 36.3291 24.9279C36.3291 26.9071 34.5879 28 32.3033 28C30.8018 28 29.5251 27.58 28.7394 27.0498V25.1195ZM41.2204 28H43.316V16.8H41.2204V28ZM53.1475 26.3051C55.51 26.3051 56.7726 24.7896 56.7726 22.3974C56.7726 19.9876 55.5091 18.4774 53.1475 18.4774H50.8113V26.3051H53.1475ZM48.9038 16.8H53.2175C56.5381 16.8 58.6854 18.9875 58.6854 22.3974C58.6854 25.8099 56.5381 28 53.2175 28H48.9038V16.8ZM69.1661 16.8V18.4774H64.0938V21.1724H68.6429V22.8305H64.0929V26.3051H69.1661V28H62.1793V16.8H69.1661ZM76.6054 21.8715H78.6853C79.9164 21.8715 80.6103 21.196 80.6103 20.1574C80.6103 19.1188 79.9164 18.4424 78.6853 18.4424H76.6054V21.8715ZM76.6054 23.4553V28H74.7548V16.8H78.7203C80.9813 16.8 82.4443 17.9646 82.4443 20.1574C82.4443 22.0325 81.6323 23.1096 79.9024 23.3861L83.8373 28H81.732L77.9223 23.4561H76.6063L76.6054 23.4553ZM6.25363 5.76625C7.0735 5.46613 7.71225 4.56575 7.71225 3.32763C7.71225 1.26437 6.25363 0.195125 3.92 0.195125H0V11.7128H4.284C6.61763 11.7128 8.07625 10.5683 8.07625 8.41138C8.07625 7.19163 7.31063 6.12238 6.25363 5.76625ZM1.841 5.03475V1.88388H3.9025C5.1975 1.88388 5.88963 2.35287 5.88963 3.4405C5.88963 4.52813 5.19663 5.03475 3.9025 5.03475H1.841ZM1.841 6.64825H4.24725C5.52475 6.64825 6.21688 7.28525 6.21688 8.33613C6.21688 9.36775 5.52388 10.0249 4.24813 10.0249H1.84188V6.64738L1.841 6.64825ZM16.6294 11.9C19.3095 11.9 21.1146 10.2865 21.1146 7.13563V0.195125H19.2185V6.90988C19.2185 9.12363 18.3068 10.1561 16.6294 10.1561C14.952 10.1561 14.0411 9.12363 14.0411 6.90988V0.195125H12.145V7.11638C12.145 10.2865 13.9676 11.9 16.6294 11.9ZM25.5789 10.8868C26.3629 11.4503 27.6395 11.9 29.134 11.9C31.4134 11.9 33.145 10.7363 33.145 8.63625C33.145 6.96675 32.3435 5.9535 30.5926 5.29725L28.7884 4.62175C27.8583 4.28488 27.3298 3.94713 27.3298 3.10275C27.3298 2.16475 28.168 1.715 29.2985 1.715C30.611 1.715 31.6321 2.22075 32.5623 2.95313V0.945C31.6689 0.345625 30.52 0.007875 29.2618 0.007875C27.202 0.007875 25.4879 1.11475 25.4879 3.14038C25.4879 5.03475 26.6184 5.85988 28.1129 6.4225L29.736 7.02275C30.7388 7.4165 31.304 7.7735 31.304 8.67388C31.304 9.7055 30.4106 10.1745 29.134 10.1745C27.8215 10.1745 26.6 9.68625 25.5789 8.84275V10.8868ZM39.9201 0.195125H38.0249V11.7119H39.9201V0.195125ZM45.3294 11.6979H47.1564V4.20525L54.8459 11.8764V0.177625H53.0241V7.5425L45.3294 0V11.6979ZM66.6943 0.19775V1.92238H61.7715V4.69438H66.1859V6.39975H61.7715V9.97238H66.6943V11.7154H59.913V0.19775H66.6943ZM71.1086 10.8789C71.8926 11.4424 73.1684 11.8921 74.6638 11.8921C76.9423 11.8921 78.6748 10.7293 78.6748 8.62838C78.6748 6.95888 77.8724 5.9465 76.1224 5.28938L74.3173 4.61475C73.3871 4.277 72.8586 3.93925 72.8586 3.09488C72.8586 2.15688 73.6969 1.70713 74.8274 1.70713C76.1399 1.70713 77.161 2.21375 78.0911 2.94525V0.938C77.1978 0.33775 76.0489 0 74.7906 0C72.7309 0 71.0168 1.10687 71.0168 3.1325C71.0168 5.02688 72.1473 5.852 73.6418 6.41463L75.2649 7.01488C76.2676 7.40863 76.8329 7.76563 76.8329 8.666C76.8329 9.69763 75.9404 10.1666 74.6629 10.1666C73.3504 10.1666 72.1289 9.67925 71.1086 8.83488V10.8789ZM82.5589 10.8789C83.3429 11.4424 84.6195 11.8921 86.114 11.8921C88.3934 11.8921 90.125 10.7293 90.125 8.62838C90.125 6.95888 89.3226 5.9465 87.5726 5.28938L85.7675 4.61475C84.8382 4.277 84.3089 3.93925 84.3089 3.09488C84.3089 2.15688 85.148 1.70713 86.2776 1.70713C87.5901 1.70713 88.6121 2.21375 89.5414 2.94525V0.938C88.6489 0.33775 87.5 0 86.2418 0C84.1811 0 82.4679 1.10687 82.4679 3.1325C82.4679 5.02688 83.5984 5.852 85.0929 6.41463L86.716 7.01488C87.7188 7.40863 88.284 7.76563 88.284 8.666C88.284 9.69763 87.3906 10.1666 86.114 10.1666C84.8015 10.1666 83.58 9.67925 82.5589 8.83488V10.8789Z" fill="white"/>
</svg>
