<svg width="57" height="18" viewBox="0 0 57 18" fill="none" xmlns="http://www.w3.org/2000/svg">
<path fill-rule="evenodd" clip-rule="evenodd" d="M4.39909 17.6316H5.71926V10.579H4.39909V17.6316ZM9.23842 17.5258H10.4208V13.0761L15.3979 17.6316V10.6848H14.2188V15.0585L9.23842 10.579V17.5258ZM18.0972 15.8178C18.7408 16.3192 19.5132 16.609 20.3414 16.609C21.148 16.609 21.7139 16.3313 21.7139 15.718C21.7139 15.1836 21.353 14.9742 20.721 14.74L19.6978 14.3847C18.7545 14.0497 18.0372 13.5604 18.0372 12.4358C18.0372 11.233 19.1231 10.579 20.4218 10.579C21.2175 10.579 21.9426 10.779 22.509 11.1333V12.3262C21.92 11.8909 21.2753 11.5911 20.4472 11.5911C19.7342 11.5911 19.2014 11.8573 19.2014 12.4121C19.2014 12.9135 19.5358 13.1141 20.1248 13.3157L21.2648 13.7158C22.3696 14.1042 22.8765 14.7064 22.8765 15.6971C22.8765 16.9434 21.78 17.6316 20.3414 17.6316C19.3959 17.6316 18.592 17.3672 18.0972 17.0333V15.8178ZM25.9565 17.6316H27.2761V10.579H25.9565V17.6316ZM33.467 16.5644C34.9547 16.5644 35.7498 15.6101 35.7498 14.1036C35.7498 12.5862 34.9541 11.6352 33.467 11.6352H31.9959V16.5644H33.467ZM30.7947 10.579H33.5111C35.6021 10.579 36.9542 11.9564 36.9542 14.1036C36.9542 16.2525 35.6021 17.6316 33.5111 17.6316H30.7947V10.579ZM43.554 10.579V11.6352H40.3599V13.3323H43.2245V14.3764H40.3593V16.5644H43.554V17.6316H39.1543V10.579H43.554ZM48.2385 13.7725H49.5482C50.3234 13.7725 50.7603 13.3471 50.7603 12.6931C50.7603 12.0391 50.3234 11.6132 49.5482 11.6132H48.2385V13.7725ZM48.2385 14.7698V17.6316H47.0731V10.579H49.5702C50.994 10.579 51.9152 11.3123 51.9152 12.6931C51.9152 13.8739 51.4039 14.5522 50.3146 14.7263L52.7924 17.6316H51.4667L49.0677 14.7703H48.239L48.2385 14.7698ZM3.93791 3.63101C4.45419 3.44202 4.85641 2.87506 4.85641 2.09541C4.85641 0.796178 3.93791 0.12287 2.46843 0.12287H0V7.37553H2.69764C4.16712 7.37553 5.08562 6.65484 5.08562 5.29665C5.08562 4.52857 4.60351 3.85527 3.93791 3.63101ZM1.15928 3.17039V1.18628H2.45741C3.27287 1.18628 3.7087 1.48161 3.7087 2.16649C3.7087 2.85136 3.27232 3.17039 2.45741 3.17039H1.15928ZM1.15928 4.18641H2.6745C3.47894 4.18641 3.91477 4.58753 3.91477 5.24927C3.91477 5.89888 3.47839 6.31267 2.67505 6.31267H1.15983V4.18586L1.15928 4.18641ZM10.4715 7.49344C12.1592 7.49344 13.2959 6.47742 13.2959 4.49331V0.12287H12.1019V4.35115C12.1019 5.74515 11.5278 6.39532 10.4715 6.39532C9.41529 6.39532 8.84171 5.74515 8.84171 4.35115V0.12287H7.64772V4.48119C7.64772 6.47742 8.79543 7.49344 10.4715 7.49344ZM16.107 6.8554C16.6007 7.21023 17.4046 7.49344 18.3457 7.49344C19.781 7.49344 20.8714 6.76063 20.8714 5.43825C20.8714 4.38697 20.3667 3.74892 19.2642 3.33568L18.1281 2.91032C17.5424 2.69819 17.2096 2.48551 17.2096 1.9538C17.2096 1.36315 17.7374 1.07994 18.4493 1.07994C19.2758 1.07994 19.9188 1.39841 20.5045 1.85959V0.595067C19.9419 0.21764 19.2185 0.00495889 18.4261 0.00495889C17.1291 0.00495889 16.0497 0.701959 16.0497 1.9775C16.0497 3.17039 16.7616 3.68997 17.7027 4.04425L18.7248 4.42223C19.3562 4.67018 19.7122 4.89498 19.7122 5.46195C19.7122 6.11156 19.1496 6.40689 18.3457 6.40689C17.5192 6.40689 16.75 6.09944 16.107 5.56829V6.8554ZM25.1377 0.12287H23.9443V7.37498H25.1377V0.12287ZM28.5439 7.36616H29.6944V2.64805L34.5365 7.47856V0.111851H33.3893V4.74952L28.5439 0V7.36616ZM41.9974 0.124523V1.21052H38.8976V2.95605H41.6773V4.02993H38.8976V6.27961H41.9974V7.37718H37.7273V0.124523H41.9974ZM44.7772 6.85044C45.2708 7.20527 46.0742 7.48848 47.0158 7.48848C48.4506 7.48848 49.5416 6.75622 49.5416 5.4333C49.5416 4.38201 49.0363 3.74452 47.9343 3.33072L46.7976 2.90591C46.2119 2.69323 45.8791 2.48055 45.8791 1.94885C45.8791 1.35819 46.407 1.07498 47.1189 1.07498C47.9453 1.07498 48.5883 1.394 49.174 1.85463V0.590659C48.6115 0.212682 47.888 0 47.0957 0C45.7987 0 44.7193 0.697 44.7193 1.97254C44.7193 3.16543 45.4312 3.68501 46.3723 4.0393L47.3944 4.41727C48.0258 4.66522 48.3817 4.89002 48.3817 5.45699C48.3817 6.1066 47.8197 6.40193 47.0153 6.40193C46.1888 6.40193 45.4196 6.09503 44.7772 5.56333V6.85044ZM51.9874 6.85044C52.4811 7.20527 53.285 7.48848 54.2261 7.48848C55.6614 7.48848 56.7518 6.75622 56.7518 5.4333C56.7518 4.38201 56.2465 3.74452 55.1446 3.33072L54.0079 2.90591C53.4227 2.69323 53.0894 2.48055 53.0894 1.94885C53.0894 1.35819 53.6178 1.07498 54.3291 1.07498C55.1556 1.07498 55.7991 1.394 56.3843 1.85463V0.590659C55.8223 0.212682 55.0988 0 54.3065 0C53.0089 0 51.9301 0.697 51.9301 1.97254C51.9301 3.16543 52.642 3.68501 53.5831 4.0393L54.6051 4.41727C55.2366 4.66522 55.5925 4.89002 55.5925 5.45699C55.5925 6.1066 55.03 6.40193 54.2261 6.40193C53.3996 6.40193 52.6304 6.09503 51.9874 5.56333V6.85044Z" fill="black"/>
</svg>
