<svg width="69" height="33" viewBox="0 0 69 33" fill="none" xmlns="http://www.w3.org/2000/svg">
<path d="M28.8281 0.000635462C25.775 -0.0454818 23.0653 2.42286 23.0653 5.99505V22.0808C23.0684 22.6598 22.6359 23.1734 22.0063 23.1734H16.9781C6.09754 23.1864 7.0698 9.26358 16.3312 9.25052C20.4484 9.24468 21.8875 9.25052 21.8875 9.25052V5.34961H16.1337C12.5283 5.35543 9.79872 6.72844 7.96271 8.77541C6.12665 10.8224 5.18667 13.5485 5.18813 16.2577C5.18956 18.8658 6.07913 21.5727 7.9373 23.6242C9.79547 25.6757 12.6208 27.0786 16.5256 27.0786H26.0163C26.565 27.0786 27.0301 26.6139 27.0301 26.0719V6.41948C27.024 5.39179 27.5571 4.56558 28.4141 4.2921H28.4143C29.2457 4.02757 30.1588 4.37209 30.7092 5.15494L30.7116 5.15843L30.7137 5.16206C32.0475 7.34755 35.3802 12.7088 38.3904 17.5417C39.8955 19.9581 41.3202 22.2427 42.3743 23.9325C42.9013 24.7774 43.3358 25.4736 43.6414 25.9633C43.9445 26.4492 44.113 26.7191 44.1318 26.7497C44.3538 27.0634 44.6332 27.1813 44.866 27.1079H44.8661L44.8664 27.1078C44.9984 27.0668 45.1023 26.9737 45.18 26.8206C45.2578 26.6675 45.3039 26.4549 45.3039 26.1995V6.4223C45.3006 5.39787 45.8304 4.56993 46.6903 4.29801C47.5166 4.03308 48.4325 4.37764 48.9774 5.16125L48.9796 5.16435L48.9815 5.16757C50.3182 7.35167 53.6523 12.713 56.6632 17.5459C59.6725 22.376 62.363 26.6851 62.4052 26.7522C62.4053 26.7523 62.4054 26.7525 62.4054 26.7526C62.6231 27.0644 62.9201 27.1888 63.1683 27.1106C63.3026 27.0681 63.41 26.9732 63.49 26.82C63.57 26.6667 63.6178 26.4556 63.6178 26.2025V0.122438V0.121094H59.682V15.3509C59.682 15.3509 57.2447 11.2179 53.0898 4.08452C49.0248 -2.90368 41.3533 -0.0153372 41.3502 5.99788V15.3481C41.3502 15.3481 38.9714 11.2121 34.8193 4.07874C33.1667 1.24093 30.917 0.0321894 28.8281 0.000635462ZM16.8448 0.121094C-5.77223 0.118279 -5.55767 32.3405 17.1494 32.3553H26.0219C29.8402 32.358 32.2921 30.0934 32.2891 25.9195V17.7578C32.2891 17.7578 37.2653 26.0082 39.218 29.2376C42.5403 34.7287 50.58 33.649 50.5598 26.79V17.7635C50.5598 17.7635 55.5358 26.0109 57.4913 29.2447C60.8136 34.7341 68.8537 33.6533 68.8333 26.7927V0.121094H64.9035V26.2022V26.2025C64.9062 27.4349 64.2154 28.1238 63.5571 28.3319L63.5567 28.332C62.7537 28.588 61.8802 28.2454 61.3371 27.4674L61.3352 27.4647L61.3334 27.4621C61.2211 27.2826 50.5711 10.2281 47.9084 5.87096C47.6875 5.55726 47.3638 5.42837 47.0767 5.51913C46.7786 5.61463 46.5891 5.93017 46.5891 6.42177V26.1963V26.1966C46.5922 27.434 45.9131 28.1209 45.2576 28.3319L45.2572 28.332L45.2568 28.3321C44.4656 28.5808 43.606 28.2389 43.0662 27.4615L43.0649 27.4596L43.0637 27.4578C43.0422 27.4243 42.8703 27.1494 42.563 26.6576C42.2557 26.1658 41.8198 25.4678 41.2915 24.6213C40.2348 22.9285 38.8088 20.642 37.3031 18.2251C34.2931 13.3934 30.9674 8.04334 29.6378 5.86518C29.4172 5.55197 29.0906 5.42537 28.8029 5.51645V5.51631C28.5015 5.61197 28.3102 5.92746 28.3129 6.41518V6.41558V26.0718C28.3129 27.3334 27.2788 28.3612 26.0163 28.3612H16.5255C12.2073 28.3612 9.04542 26.7937 6.97108 24.4944C4.89674 22.1952 3.90839 19.171 3.90544 16.2577C3.90249 13.2349 4.94935 10.1921 7.00415 7.90034C9.05895 5.60853 12.1243 4.07277 16.1308 4.06691H16.1309H21.8875V0.121094H16.8448Z" fill="#EC1C2E"/>
</svg>
