<svg width="61" height="16" viewBox="0 0 61 16" fill="none" xmlns="http://www.w3.org/2000/svg">
<path d="M34.1483 4.92611C34.1483 3.16244 34.1787 1.5204 34.2699 0L29.6175 0.881835V1.30755L30.0736 1.36836C30.4081 1.39877 30.6209 1.5204 30.7426 1.70285C30.8642 1.91571 30.9554 2.21979 31.0163 2.67591C31.0771 3.55775 31.1379 5.56468 31.1075 8.72712C31.1075 11.8592 31.0771 13.8357 31.0163 14.5959C32.6887 14.9608 33.9962 15.1128 34.9693 15.1128C36.7938 15.1128 38.223 14.5959 39.2568 13.5316C40.2907 12.4977 40.8381 11.0381 40.8381 9.24406C40.8381 7.81488 40.4428 6.62896 39.6521 5.68631C38.8615 4.74366 37.8581 4.28754 36.6722 4.28754C35.8815 4.28754 35.0605 4.5004 34.1483 4.92611ZM34.2395 14.2918C34.1787 13.3187 34.1179 10.3996 34.1179 5.6255C34.3915 5.53427 34.7564 5.47346 35.2126 5.47346C35.9424 5.47346 36.5201 5.83835 36.9458 6.59856C37.3715 7.35876 37.5844 8.271 37.5844 9.42651C37.5844 10.8557 37.3411 12.0112 36.8546 12.9843C36.3681 13.9269 35.7599 14.4134 34.9997 14.4134C34.7564 14.3526 34.5132 14.3222 34.2395 14.2918ZM12.1632 0.304081H0V0.912243L0.63857 0.973059C1.1251 1.06428 1.45959 1.24673 1.67244 1.5204C1.8853 1.82449 2.00693 2.31102 2.03734 2.97999C2.28061 6.26407 2.28061 9.33528 2.03734 12.1632C1.97653 12.8322 1.85489 13.3187 1.67244 13.6228C1.45959 13.9269 1.1251 14.1094 0.63857 14.1702L0 14.2614V14.8696H7.84529V14.2614L7.02427 14.2006C6.82393 14.1838 6.62905 14.1267 6.45137 14.0326C6.27369 13.9385 6.11688 13.8095 5.99039 13.6532C5.77754 13.3492 5.6559 12.8626 5.6255 12.1936C5.53427 10.9773 5.47346 9.57855 5.47346 8.02774L7.11549 8.05814C7.99733 8.08855 8.60549 8.75753 8.90957 10.0955H9.51773V5.13897H8.90957C8.60549 6.44652 8.02774 7.11549 7.11549 7.1459L5.47346 7.17631C5.47346 4.43958 5.53427 2.49346 5.6255 1.30755H8.02774C9.73059 1.30755 10.8861 2.40224 11.5551 4.59162L12.2849 4.37877L12.1632 0.304081ZM10.7341 9.66977C10.7341 11.251 11.1902 12.5585 12.072 13.5924C12.9538 14.6263 14.2614 15.1128 15.9034 15.1128C17.5455 15.1128 18.8834 14.5959 19.8565 13.5316C20.8295 12.4977 21.2857 11.1902 21.2857 9.60896C21.2857 8.02774 20.8295 6.72019 19.9477 5.68631C19.0659 4.65244 17.7583 4.16591 16.1163 4.16591C14.4743 4.16591 13.1363 4.68285 12.1632 5.74713C11.1902 6.781 10.7341 8.08855 10.7341 9.66977ZM17.5151 6.20325C17.88 7.08509 18.032 8.24059 18.032 9.63937C18.032 12.8626 17.363 14.4438 16.0555 14.4438C15.3865 14.4438 14.8696 13.9877 14.5047 13.0755C14.1398 12.1632 13.9877 11.0077 13.9877 9.63937C13.9877 6.44652 14.6567 4.86529 15.9642 4.86529C16.6332 4.83489 17.1502 5.29101 17.5151 6.20325ZM43.2099 13.5924C44.2134 14.5959 45.4905 15.1128 47.0109 15.1128C47.9536 15.1128 48.7746 14.9304 49.5044 14.5351C50.2342 14.1702 50.8119 13.7141 51.2072 13.1667L50.9031 12.8018C50.2342 13.3187 49.474 13.562 48.5921 13.562C47.3758 13.562 46.4332 13.1667 45.7946 12.3457C45.1256 11.5247 44.8215 10.4908 44.8823 9.15284H51.3897C51.3897 7.69325 51.0248 6.50733 50.2646 5.56468C49.5044 4.65244 48.4401 4.19632 47.0717 4.19632C45.3689 4.19632 44.0613 4.74366 43.1187 5.80795C42.176 6.87223 41.7199 8.17978 41.7199 9.73059C41.7199 11.3118 42.2064 12.589 43.2099 13.5924ZM45.4601 5.95999C45.7946 5.23019 46.2203 4.86529 46.798 4.86529C47.7103 4.86529 48.1664 6.0208 48.1664 8.36223L44.9432 8.42304C44.9736 7.5108 45.1256 6.68978 45.4601 5.95999ZM59.5694 4.74366C58.7484 4.37877 57.7146 4.16591 56.4678 4.16591C55.1907 4.16591 54.1872 4.5004 53.427 5.13897C52.6668 5.77754 52.2715 6.56815 52.2715 7.5108C52.2715 8.33182 52.5148 8.97039 52.9709 9.42651C53.427 9.88263 54.1568 10.2779 55.0995 10.6124C55.9509 10.9165 56.559 11.2206 56.8631 11.4943C57.1672 11.7983 57.3497 12.1328 57.3497 12.589C57.3497 13.0147 57.1976 13.41 56.8631 13.714C56.559 14.0485 56.1333 14.2006 55.586 14.2006C54.248 14.2006 53.2446 13.2275 52.5452 11.2814L52.0282 11.4334L52.1499 14.4743C53.2446 14.9 54.4609 15.1128 55.7988 15.1128C57.1976 15.1128 58.2619 14.8087 59.0525 14.1702C59.8431 13.562 60.2384 12.6802 60.2384 11.5855C60.2384 10.8557 60.056 10.2475 59.6607 9.79141C59.2654 9.33529 58.6268 8.93998 57.7146 8.57508C56.7111 8.21019 56.0117 7.8757 55.6468 7.57162C55.2819 7.26753 55.0995 6.90264 55.0995 6.44652C55.0995 5.99039 55.2211 5.6255 55.4948 5.32142C55.7684 5.01734 56.1029 4.8957 56.5286 4.8957C57.745 4.8957 58.6268 5.77754 59.1741 7.5108L59.6911 7.35876L59.5694 4.74366ZM30.3169 4.46999C29.8912 4.25713 29.435 4.16591 28.9181 4.16591C28.4012 4.16591 27.8842 4.37877 27.3065 4.80448C26.7287 5.23019 26.303 5.80795 25.9685 6.59856L25.9989 4.16591L21.3769 5.07815V5.50387L21.833 5.53427C22.4108 5.59509 22.7453 6.05121 22.8061 6.87223C22.9885 8.75753 22.9885 10.7645 22.8061 12.893C22.7453 13.7141 22.4108 14.1398 21.833 14.231L21.3769 14.2918V14.8696H27.8234V14.2918L27.0024 14.231C26.4246 14.1702 26.0901 13.7141 26.0293 12.893C25.8469 11.1294 25.8165 9.24406 25.9685 7.29794C26.151 6.99386 26.5463 6.81141 27.1544 6.7506C27.7626 6.68978 28.462 6.87223 29.1918 7.29794L30.3169 4.46999Z" fill="black"/>
</svg>
