<svg width="64" height="12" viewBox="0 0 64 12" fill="none" xmlns="http://www.w3.org/2000/svg">
<path d="M0 0H4.67678C5.5676 0 6.23571 0.222704 6.73061 0.593877C7.27499 1.03929 7.57194 1.68265 7.57194 2.47449C7.57194 3.39005 7.20076 3.95918 6.45842 4.30561V4.3551C7.44821 4.67678 8.01734 5.5676 8.01734 6.63163C8.01734 7.64617 7.62142 8.438 6.97806 8.9329C6.43367 9.32882 5.74081 9.50204 4.80051 9.50204H0V0ZM4.20663 3.71173C4.70153 3.71173 5.0727 3.43954 5.0727 2.87041C5.0727 2.32602 4.70153 2.05383 4.18188 2.05383H2.57347V3.68699H4.20663V3.71173ZM4.42933 7.39872C4.99847 7.39872 5.41913 7.05229 5.41913 6.43367C5.41913 5.76556 4.97372 5.46862 4.42933 5.46862H2.59821V7.42346H4.42933V7.39872Z" fill="black"/>
<path d="M8.4375 0H10.8872V9.52678H8.4375V0Z" fill="black"/>
<path d="M11.3828 6.13488C11.3828 3.98208 12.7685 2.54688 14.9213 2.54688C17.0741 2.54688 18.4351 4.00682 18.4351 6.13488C18.4351 8.28769 17.0741 9.72289 14.9213 9.72289C12.7685 9.72289 11.3828 8.28769 11.3828 6.13488ZM15.9854 6.13488C15.9854 4.94713 15.6142 4.20478 14.8718 4.20478C14.1295 4.20478 13.7831 4.94713 13.7831 6.13488C13.7831 7.32264 14.1295 8.08973 14.8718 8.08973C15.6142 8.06498 15.9854 7.32264 15.9854 6.13488Z" fill="black"/>
<path d="M18.7109 6.13488C18.7109 3.98208 20.0966 2.54688 22.2495 2.54688C24.4023 2.54688 25.7385 3.98208 25.7385 6.13488C25.7385 8.28769 24.3775 9.72289 22.2247 9.72289C20.0966 9.72289 18.7109 8.28769 18.7109 6.13488ZM23.3135 6.13488C23.3135 4.94713 22.9423 4.20478 22.2 4.20478C21.4576 4.20478 21.1112 4.94713 21.1112 6.13488C21.1112 7.32264 21.4576 8.08973 22.2 8.08973C22.9423 8.06498 23.3135 7.32264 23.3135 6.13488Z" fill="black"/>
<path d="M26.2285 2.7253H28.505V3.73984H28.5545C28.9999 2.94801 29.6186 2.52734 30.6084 2.52734C31.4744 2.52734 32.1178 2.94801 32.4395 3.69035H32.489C33.0334 2.79954 33.751 2.52734 34.5923 2.52734C36.176 2.52734 36.8441 3.69035 36.8441 5.24928V9.5054H34.4686V5.66994C34.4686 4.97709 34.2459 4.53168 33.652 4.53168C33.0581 4.53168 32.7612 5.07607 32.7612 5.81841V9.5054H30.3857V5.66994C30.3857 4.97709 30.163 4.53168 29.5691 4.53168C28.9752 4.53168 28.6783 5.07607 28.6783 5.81841V9.5054H26.2285V2.7253Z" fill="black"/>
<path d="M39.8403 8.61122H39.8156V9.50204H37.5391V0H39.9146V3.41479H39.9641C40.4095 2.82092 41.0281 2.49923 41.8942 2.49923C43.6016 2.49923 44.5914 4.03342 44.5914 6.08724C44.5914 8.38852 43.5273 9.72474 41.7457 9.72474C41.0033 9.72474 40.2363 9.37831 39.8403 8.61122ZM42.1416 6.0625C42.1416 4.97372 41.7457 4.25612 41.0281 4.25612C40.2857 4.25612 39.8403 4.97372 39.8403 6.0625C39.8403 7.15127 40.3105 7.86887 41.0281 7.86887C41.7457 7.86887 42.1416 7.17602 42.1416 6.0625Z" fill="black"/>
<path d="M44.8613 6.11535C44.8613 3.98729 46.2718 2.52734 48.3009 2.52734C49.3154 2.52734 50.0825 2.84903 50.6764 3.41816C51.4682 4.18525 51.8146 5.37301 51.7899 6.75872H47.2368C47.3358 7.60004 47.7317 8.04545 48.4493 8.04545C48.87 8.04545 49.2412 7.84749 49.3896 7.40209H51.6909C51.295 8.96101 50.0825 9.7281 48.3751 9.7281C46.2718 9.70336 44.8613 8.26816 44.8613 6.11535ZM47.2368 5.39775H49.4144C49.3649 4.58117 48.9195 4.16051 48.3504 4.16051C47.6822 4.13576 47.3111 4.60591 47.2368 5.39775Z" fill="black"/>
<path d="M54.4875 3.8896H54.537C55.0319 2.9493 55.6752 2.57812 56.4918 2.57812C56.6898 2.57812 56.8135 2.60287 56.8877 2.65236V4.73093H56.8382C55.4278 4.48348 54.6112 5.15159 54.6112 6.68578V9.53144H52.2109V2.72659H54.4875V3.8896Z" fill="black"/>
<path d="M57.1374 9.52364H59.4387C59.5377 9.82058 59.8346 10.0928 60.4037 10.0928C61.1708 10.0928 61.443 9.62262 61.443 8.90502V8.41012H61.3935C61.0223 8.85553 60.5027 9.17721 59.7604 9.17721C58.3004 9.17721 57.0137 8.08844 57.0137 5.96038C57.0137 4.00553 58.053 2.49609 59.6366 2.49609C60.5522 2.49609 61.0966 2.86727 61.4678 3.4364H61.5172V2.69405H63.7938V8.58333C63.7938 9.67211 63.4226 10.5134 62.8535 11.0083C62.2596 11.528 61.4183 11.7507 60.4532 11.7507C58.6221 11.7754 57.3601 11.0331 57.1374 9.52364ZM61.542 5.8614C61.542 5.02007 61.1461 4.32721 60.4532 4.32721C59.7851 4.32721 59.3644 4.92109 59.3644 5.8614C59.3644 6.77696 59.7851 7.42032 60.4532 7.42032C61.1213 7.42032 61.542 6.75221 61.542 5.8614Z" fill="black"/>
</svg>
