<svg width="44" height="21" viewBox="0 0 44 21" fill="none" xmlns="http://www.w3.org/2000/svg">
<path d="M18.155 0.000400151C16.2325 -0.0286399 14.5262 1.52568 14.5262 3.77509V13.9043C14.5282 14.2689 14.2558 14.5923 13.8594 14.5923H10.6931C3.84158 14.6005 4.45381 5.83329 10.2857 5.82506C12.8783 5.82138 13.7845 5.82506 13.7845 5.82506V3.36865H10.1614C7.89101 3.37232 6.17221 4.2369 5.01608 5.52588C3.85991 6.8149 3.268 8.53151 3.26892 10.2375C3.26982 11.8798 3.82999 13.5843 5.00008 14.8762C6.17017 16.168 7.94928 17.0514 10.4081 17.0514H16.3844C16.7299 17.0514 17.0228 16.7588 17.0228 16.4175V4.04235C17.019 3.39521 17.3547 2.87495 17.8944 2.70274H17.8944C18.418 2.53616 18.993 2.75311 19.3395 3.24607L19.3411 3.24827L19.3424 3.25055C20.1823 4.62676 22.2809 8.00277 24.1764 11.046C25.1242 12.5677 26.0213 14.0062 26.6851 15.0703C27.017 15.6023 27.2905 16.0407 27.483 16.3491C27.6739 16.6551 27.78 16.825 27.7918 16.8443C27.9316 17.0418 28.1075 17.1161 28.2541 17.0699H28.2542L28.2544 17.0698C28.3375 17.044 28.4029 16.9854 28.4519 16.889C28.5008 16.7926 28.5298 16.6587 28.5298 16.4979V4.04413C28.5278 3.39904 28.8614 2.87769 29.4029 2.70646C29.9232 2.53964 30.4999 2.7566 30.8431 3.25005L30.8444 3.25199L30.8456 3.25402C31.6874 4.62935 33.7869 8.00539 35.6828 11.0487C37.5777 14.0902 39.272 16.8036 39.2985 16.8459C39.2986 16.846 39.2987 16.8461 39.2987 16.8461C39.4357 17.0425 39.6228 17.1208 39.7791 17.0716C39.8637 17.0448 39.9313 16.985 39.9816 16.8886C40.032 16.7921 40.0621 16.6591 40.0621 16.4997V0.0770994V0.0762529H37.5837V9.66646C37.5837 9.66646 36.049 7.06391 33.4327 2.57203C30.8729 -1.82845 26.0422 -0.00965785 26.0402 3.77687V9.66468C26.0402 9.66468 24.5423 7.06027 21.9277 2.56839C20.8871 0.781414 19.4704 0.0202697 18.155 0.000400151ZM10.6091 0.0762529C-3.63283 0.0744801 -3.49772 20.3649 10.8009 20.3741H16.388C18.7924 20.3759 20.3363 18.9498 20.3344 16.3215V11.1821C20.3344 11.1821 23.4679 16.3774 24.6976 18.4109C26.7896 21.8687 31.8522 21.1888 31.8395 16.8697V11.1857C31.8395 11.1857 34.9729 16.3791 36.2042 18.4154C38.2963 21.8721 43.3592 21.1915 43.3463 16.8714V0.0762529H40.8717V16.4996V16.4997C40.8735 17.2758 40.4384 17.7096 40.0239 17.8406L40.0236 17.8407C39.518 18.0019 38.968 17.7862 38.6259 17.2963L38.6248 17.2946L38.6237 17.2929C38.5529 17.1799 31.8466 6.44067 30.1699 3.69695C30.0308 3.49941 29.827 3.41825 29.6462 3.4754C29.4585 3.53554 29.3391 3.73423 29.3391 4.04379V16.4958V16.496C29.3411 17.2752 28.9134 17.7077 28.5007 17.8406L28.5005 17.8407L28.5002 17.8408C28.002 17.9973 27.4607 17.782 27.1208 17.2925L27.1199 17.2914L27.1192 17.2902C27.1056 17.2691 26.9974 17.096 26.8039 16.7863C26.6104 16.4766 26.3359 16.0371 26.0032 15.5041C25.3379 14.4381 24.4399 12.9983 23.4917 11.4763C21.5963 8.43384 19.5021 5.0649 18.6649 3.69331C18.526 3.49608 18.3203 3.41636 18.1392 3.47371V3.47363C17.9494 3.53386 17.8289 3.73253 17.8306 4.03964V4.0399V16.4174C17.8306 17.2118 17.1794 17.8591 16.3844 17.8591H10.4081C7.68892 17.8591 5.69786 16.872 4.39165 15.4242C3.08543 13.9763 2.46307 12.072 2.46121 10.2375C2.45935 8.33401 3.11856 6.418 4.41247 4.97485C5.70638 3.5317 7.63665 2.56463 10.1595 2.56094H10.1596H13.7845V0.0762529H10.6091Z" fill="black"/>
</svg>
