<svg width="35" height="24" viewBox="0 0 35 24" fill="none" xmlns="http://www.w3.org/2000/svg">
<g clip-path="url(#clip0_5586_20214)">
<path d="M33.5672 3.74789C33.1722 2.27188 32.0122 1.11195 30.5362 0.716839C27.8636 2.14577e-07 17.142 0 17.142 0C17.142 0 6.4205 2.14577e-07 3.74788 0.716839C2.27188 1.11195 1.11195 2.27188 0.716839 3.74789C2.14577e-07 6.4205 0 12 0 12C0 12 2.14577e-07 17.5795 0.716839 20.2522C1.11195 21.7282 2.27188 22.8881 3.74788 23.2831C6.4205 24 17.142 24 17.142 24C17.142 24 27.8636 24 30.5362 23.2831C32.0122 22.8881 33.1722 21.7282 33.5672 20.2522C34.2841 17.5795 34.2841 12 34.2841 12C34.2841 12 34.2812 6.4205 33.5672 3.74789Z" fill="#FF0000"/>
<path d="M13.7109 17.1435L22.6178 12.0015L13.7109 6.85938V17.1435Z" fill="white"/>
</g>
<defs>
<clipPath id="clip0_5586_20214">
<rect width="34.284" height="24" fill="white"/>
</clipPath>
</defs>
</svg>
