<svg width="71" height="56" viewBox="0 0 71 56" fill="none" xmlns="http://www.w3.org/2000/svg">
<path d="M35.032 5.34521C33.9397 2.61787 31.2787 -0.327645 26.2947 0.0769876C19.9458 0.767173 17.9674 6.85146 18.927 10.4812C16.3983 8.76894 12.0987 8.01607 8.34586 11.2307C3.50027 16.088 6.09213 22.6569 8.75589 24.2326C5.82018 23.9608 1.18035 25.9445 0.153921 31.1336C-0.937998 37.5764 3.97339 41.3322 8.75589 41.3322H61.7884C67.3187 41.3322 70.387 36.5479 70.0428 32.0359C69.5003 26.1473 64.1117 23.8879 61.1723 24.3721C63.6281 23.0019 66.9078 16.5658 61.9207 11.506C57.9618 7.74042 52.9152 9.11059 51.1407 10.7529C52.0972 7.60724 50.5286 1.10472 44.1077 0.0762874C43.6638 0.0265956 43.2365 0 42.8292 0C37.9277 0.000699884 35.7237 3.58371 35.032 5.34521Z" fill="white"/>
<path d="M9.22938 12.2549C6.42954 14.7895 5.41051 20.5325 10.4578 23.8898L30.5935 37.7044L20.8304 15.3368C18.7845 10.0586 13.1876 8.90755 9.22938 12.2549Z" fill="#F37021"/>
<path d="M26.5611 1.37906C23.288 1.44575 18.3731 5.34341 20.5604 11.2952L30.6582 35.1099L34.2065 10.0614C35.0276 3.83746 30.3174 0.964333 26.5611 1.37906Z" fill="#CC004C"/>
<path d="M35.7841 9.10886H37.6935C37.6935 9.10886 38.7131 9.10886 38.8519 9.58988C38.1005 10.2035 36.0554 10.2804 36.3269 13.5579L39.5367 35.1092L49.5655 11.2321C51.6169 5.9008 47.3111 1.44834 43.4916 1.31226C43.3133 1.29946 43.1342 1.28906 42.9488 1.28906C39.5207 1.28896 35.5921 3.78045 35.7841 9.10886Z" fill="#6460AA"/>
<path d="M49.1614 15.5419L39.6758 37.6412L59.8056 23.7537C64.4459 20.4624 63.6975 15.2005 61.1 12.5995C60.0111 11.3753 58.0117 10.4297 55.8938 10.4297C53.3916 10.4292 50.7137 11.7564 49.1614 15.5419Z" fill="#0089D0"/>
<path d="M57.5508 26.8964L38.6465 40.1009H61.9232C66.6987 40.1009 69.7676 35.1771 68.4033 30.6587C67.4896 27.8186 64.7862 25.5891 61.6485 25.5859C60.3277 25.5864 58.927 25.9843 57.5508 26.8964Z" fill="#0DB14B"/>
<path d="M8.68592 40.1009H31.6192L12.71 26.8963C8.34157 24.0896 3.42959 25.7319 1.65628 30.3897C0.153134 35.7215 3.90621 40.1009 8.68592 40.1009Z" fill="#FCB711"/>
<path d="M0.0742188 49.6557C0.0742188 51.9046 1.91261 55.998 8.93225 55.998C15.4042 55.998 17.4482 53.0283 17.4482 51.6666H12.4378C12.4378 51.6666 12.1998 53.4656 9.37337 53.4656C6.54515 53.4656 5.78027 51.1049 5.78027 49.7398C5.78027 48.38 6.54515 46.1467 9.37337 46.1467C12.1998 46.1467 12.4378 47.713 12.4378 47.713H17.4482C17.4482 46.3497 15.9485 43.4219 8.93225 43.4219C1.91261 43.4219 0.0742188 47.7814 0.0742188 49.6557Z" fill="white"/>
<path d="M52.6211 49.6557C52.6211 51.9046 54.4614 55.998 61.4791 55.998C67.9504 55.998 69.9953 53.0283 69.9953 51.6666H64.9883C64.9883 51.6666 64.7493 53.4656 61.9221 53.4656C59.0936 53.4656 58.3279 51.1049 58.3279 49.7398C58.3279 48.38 59.0936 46.1467 61.9221 46.1467C64.7493 46.1467 64.9883 47.713 64.9883 47.713H69.9953C69.9953 46.3497 68.4972 43.4219 61.4791 43.4219C54.4615 43.4219 52.6211 47.7814 52.6211 49.6557Z" fill="white"/>
<path d="M31.1406 43.6328V51.2457L25.3095 43.6328H18.75V55.6909H23.247V47.9906L28.976 55.6909H35.6379V43.6328H31.1406Z" fill="white"/>
<path d="M45.5517 52.8102V52.8261H41.8047V50.6121H45.5517V50.6193C46.3518 50.6193 46.9984 51.111 46.9984 51.7165C46.9984 52.3205 46.3518 52.8102 45.5517 52.8102ZM41.8391 45.978H45.4495V45.9831C46.0612 45.9831 46.5573 46.3856 46.5573 46.8809C46.5573 47.3781 46.0612 47.777 45.4495 47.777V47.7824H41.8391V45.978ZM49.2318 49.2804C50.0505 49.2804 51.7622 48.33 51.7622 46.4889C51.7622 43.8673 46.8803 43.6328 46.1314 43.6328H37.1367V55.6909H46.1314C50.4575 55.6909 52.1953 54.3242 52.1953 52.042C52.1953 49.7598 49.2318 49.2804 49.2318 49.2804Z" fill="white"/>
</svg>
