<svg width="31" height="24" viewBox="0 0 31 24" fill="none" xmlns="http://www.w3.org/2000/svg">
<path d="M26.2632 2.00999C24.2563 1.071 22.1104 0.388577 19.8669 0C19.5914 0.498142 19.2695 1.16815 19.0475 1.70115C16.6626 1.34249 14.2997 1.34249 11.9586 1.70115C11.7368 1.16815 11.4076 0.498142 11.1296 0C8.88365 0.388577 6.73527 1.07351 4.72834 2.01497C0.680331 8.13203 -0.417016 14.0972 0.131659 19.9776C2.81651 21.9826 5.41845 23.2005 7.97648 23.9975C8.60808 23.1283 9.17137 22.2042 9.65664 21.2304C8.73243 20.8792 7.84724 20.4459 7.01084 19.9427C7.23273 19.7783 7.44978 19.6065 7.65948 19.4296C12.7609 21.8157 18.3038 21.8157 23.3443 19.4296C23.5564 19.6065 23.7734 19.7783 23.9929 19.9427C23.154 20.4483 22.2664 20.8817 21.3422 21.2329C21.8275 22.2042 22.3884 23.1308 23.0224 24C25.5829 23.203 28.1872 21.9851 30.8721 19.9776C31.5159 13.1607 29.7723 7.25033 26.2632 2.00999ZM10.3516 16.3612C8.82024 16.3612 7.56436 14.9315 7.56436 13.1906C7.56436 11.4496 8.79342 10.0175 10.3516 10.0175C11.9099 10.0175 13.1657 11.4471 13.1389 13.1906C13.1413 14.9315 11.9099 16.3612 10.3516 16.3612ZM20.6521 16.3612C19.1207 16.3612 17.8648 14.9315 17.8648 13.1906C17.8648 11.4496 19.0938 10.0175 20.6521 10.0175C22.2103 10.0175 23.4662 11.4471 23.4394 13.1906C23.4394 14.9315 22.2103 16.3612 20.6521 16.3612Z" fill="#7783FF"/>
</svg>
