<svg width="102" height="19" viewBox="0 0 102 19" fill="none" xmlns="http://www.w3.org/2000/svg">
<path d="M0 0H7.42699C8.84165 0 9.90265 0.353666 10.6886 0.94311C11.5531 1.65044 12.0247 2.67214 12.0247 3.92962C12.0247 5.38359 11.4352 6.2874 10.2563 6.83755V6.91614C11.8282 7.42699 12.732 8.84166 12.732 10.5314C12.732 12.1425 12.1032 13.4 11.0815 14.1859C10.217 14.8147 9.11673 15.0898 7.62347 15.0898H0V0ZM6.68036 5.89444C7.46629 5.89444 8.05573 5.46218 8.05573 4.55836C8.05573 3.69385 7.46628 3.26159 6.64106 3.26159H4.08681V5.85514H6.68036V5.89444ZM7.03403 11.7496C7.93784 11.7496 8.60588 11.1994 8.60588 10.217C8.60588 9.15603 7.89854 8.68447 7.03403 8.68447H4.12611V11.7889H7.03403V11.7496Z" fill="white"/>
<path d="M13.4004 0H17.2907V15.1291H13.4004V0Z" fill="white"/>
<path d="M18.0762 9.74483C18.0762 6.32606 20.2768 4.04688 23.6955 4.04688C27.1143 4.04688 29.2756 6.36535 29.2756 9.74483C29.2756 13.1636 27.1143 15.4428 23.6955 15.4428C20.2768 15.4428 18.0762 13.1636 18.0762 9.74483ZM25.3853 9.74483C25.3853 7.85861 24.7958 6.67972 23.6169 6.67972C22.4381 6.67972 21.8879 7.85861 21.8879 9.74483C21.8879 11.6311 22.4381 12.8492 23.6169 12.8492C24.7958 12.8099 25.3853 11.6311 25.3853 9.74483Z" fill="white"/>
<path d="M29.707 9.74483C29.707 6.32606 31.9076 4.04688 35.3264 4.04688C38.7452 4.04688 40.8672 6.32606 40.8672 9.74483C40.8672 13.1636 38.7059 15.4428 35.2871 15.4428C31.9076 15.4428 29.707 13.1636 29.707 9.74483ZM37.0161 9.74483C37.0161 7.85861 36.4267 6.67972 35.2478 6.67972C34.0689 6.67972 33.5188 7.85861 33.5188 9.74483C33.5188 11.6311 34.0689 12.8492 35.2478 12.8492C36.4267 12.8099 37.0161 11.6311 37.0161 9.74483Z" fill="white"/>
<path d="M41.6543 4.32218H45.2696V5.93333H45.3481C46.0555 4.67585 47.0379 4.00781 48.6097 4.00781C49.9851 4.00781 51.0068 4.67585 51.5177 5.85474H51.5962C52.4608 4.44007 53.6004 4.00781 54.9364 4.00781C57.4514 4.00781 58.5124 5.85474 58.5124 8.3304V15.0894H54.7399V8.99844C54.7399 7.89814 54.3863 7.19081 53.4432 7.19081C52.5001 7.19081 52.0285 8.05533 52.0285 9.23421V15.0894H48.2561V8.99844C48.2561 7.89814 47.9024 7.19081 46.9593 7.19081C46.0162 7.19081 45.5446 8.05533 45.5446 9.23421V15.0894H41.6543V4.32218Z" fill="white"/>
<path d="M63.2678 13.6751H63.2285V15.0898H59.6133V0H63.3857V5.42288H63.4643C64.1716 4.47977 65.154 3.96892 66.5294 3.96892C69.2409 3.96892 70.8127 6.40529 70.8127 9.66688C70.8127 13.3214 69.123 15.4434 66.2936 15.4434C65.1148 15.4434 63.8966 14.8933 63.2678 13.6751ZM66.9224 9.62758C66.9224 7.89855 66.2936 6.75895 65.154 6.75895C63.9752 6.75895 63.2678 7.89855 63.2678 9.62758C63.2678 11.3566 64.0145 12.4962 65.154 12.4962C66.2936 12.4962 66.9224 11.3959 66.9224 9.62758Z" fill="white"/>
<path d="M71.2441 9.70577C71.2441 6.32629 73.484 4.00781 76.7063 4.00781C78.3175 4.00781 79.5356 4.51866 80.4788 5.42248C81.7362 6.64066 82.2864 8.52688 82.2471 10.7275H75.0166C75.1738 12.0635 75.8025 12.7709 76.9421 12.7709C77.6101 12.7709 78.1996 12.4565 78.4354 11.7492H82.0899C81.4612 14.2248 79.5357 15.443 76.8242 15.443C73.484 15.4037 71.2441 13.1245 71.2441 9.70577ZM75.0166 8.56618H78.4747C78.3961 7.2694 77.6887 6.60136 76.7849 6.60136C75.7239 6.56207 75.1345 7.3087 75.0166 8.56618Z" fill="white"/>
<path d="M86.5313 6.17254H86.6099C87.3958 4.67929 88.4175 4.08984 89.7143 4.08984C90.0286 4.08984 90.2251 4.12914 90.343 4.20773V7.50862H90.2644C88.0245 7.11565 86.7278 8.17665 86.7278 10.613V15.1321H82.916V4.32562H86.5313V6.17254Z" fill="white"/>
<path d="M90.7355 15.1289H94.3901C94.5473 15.6004 95.0188 16.0327 95.9227 16.0327C97.1408 16.0327 97.5731 15.2861 97.5731 14.1465V13.3606H97.4945C96.9051 14.0679 96.0798 14.5787 94.9009 14.5787C92.5825 14.5787 90.5391 12.8497 90.5391 9.47022C90.5391 6.36582 92.1895 3.96875 94.7045 3.96875C96.1584 3.96875 97.0229 4.55819 97.6124 5.46201H97.691V4.28312H101.306V13.6356C101.306 15.3647 100.717 16.7007 99.813 17.4867C98.8699 18.3119 97.5338 18.6655 96.0012 18.6655C93.0933 18.7048 91.0892 17.526 90.7355 15.1289ZM97.7303 9.31304C97.7303 7.97697 97.1015 6.87667 96.0012 6.87667C94.9402 6.87667 94.2722 7.81978 94.2722 9.31304C94.2722 10.767 94.9402 11.7887 96.0012 11.7887C97.0622 11.7887 97.7303 10.7277 97.7303 9.31304Z" fill="white"/>
</svg>
