<svg width="30" height="30" viewBox="0 0 30 30" fill="none" xmlns="http://www.w3.org/2000/svg">
<g clip-path="url(#clip0_5617_20711)">
<path d="M20.2492 15.7208C20.3415 15.4832 20.5034 15.279 20.7137 15.1351C20.924 14.9911 21.1729 14.9141 21.4277 14.9141C21.6827 14.9141 21.9315 14.9911 22.1419 15.1351C22.3521 15.279 22.5141 15.4832 22.6063 15.7208L23.9777 19.2136H27.642C27.9026 19.2175 28.1561 19.2991 28.3699 19.448C28.5838 19.5969 28.7481 19.8063 28.842 20.0493C28.9329 20.2889 28.9485 20.5504 28.8872 20.7991C28.8261 21.0478 28.6907 21.2721 28.4991 21.4421L25.2634 24.335L26.6349 27.0779C26.7591 27.3187 26.8011 27.5934 26.7546 27.8604C26.7084 28.1272 26.5759 28.3717 26.3777 28.5564C26.181 28.7435 25.9309 28.8648 25.662 28.9031C25.3933 28.9415 25.1192 28.8952 24.8777 28.7707L21.4277 26.8207L17.9778 28.7064C17.7365 28.8309 17.4624 28.8772 17.1936 28.8389C16.9248 28.8005 16.6746 28.6792 16.4778 28.4921C16.2797 28.3074 16.1473 28.0629 16.1009 27.7961C16.0544 27.5291 16.0965 27.2544 16.2207 27.0136L17.5921 24.2707L14.3564 21.3565C14.1648 21.1864 14.0295 20.9621 13.9683 20.7134C13.9071 20.4646 13.9228 20.2032 14.0135 19.9636C14.1204 19.7366 14.2905 19.5452 14.5032 19.4122C14.716 19.2792 14.9626 19.2103 15.2135 19.2136H18.8778L20.2492 15.7208Z" stroke="white" stroke-width="2.14286" stroke-linecap="round" stroke-linejoin="round"/>
<path d="M8.57031 20.356H3.21317C2.64484 20.356 2.09981 20.1303 1.69794 19.7284C1.29608 19.3265 1.07031 18.7815 1.07031 18.2132V3.21317C1.07031 2.64484 1.29608 2.09981 1.69794 1.69794C2.09981 1.29608 2.64484 1.07031 3.21317 1.07031H24.6417C25.21 1.07031 25.7552 1.29608 26.157 1.69794C26.5587 2.09981 26.7846 2.64484 26.7846 3.21317V11.7846" stroke="white" stroke-width="2.14286" stroke-linecap="round" stroke-linejoin="round"/>
<path d="M1.07031 3.77734L13.9275 12.8631L26.7846 3.77734" stroke="white" stroke-width="2.14286" stroke-linecap="round" stroke-linejoin="round"/>
</g>
<defs>
<clipPath id="clip0_5617_20711">
<rect width="30" height="30" fill="white"/>
</clipPath>
</defs>
</svg>
