<svg width="30" height="30" viewBox="0 0 30 30" fill="none" xmlns="http://www.w3.org/2000/svg">
<g clip-path="url(#clip0_5586_20164)">
<path d="M18.8535 5.35324C18.8535 6.37621 19.2599 7.35729 19.9832 8.08065C20.7066 8.804 21.6877 9.21038 22.7107 9.21038C23.7336 9.21038 24.7147 8.804 25.4381 8.08065C26.1614 7.35729 26.5678 6.37621 26.5678 5.35324C26.5678 4.33026 26.1614 3.34918 25.4381 2.62582C24.7147 1.90247 23.7336 1.49609 22.7107 1.49609C21.6877 1.49609 20.7066 1.90247 19.9832 2.62582C19.2599 3.34918 18.8535 4.33026 18.8535 5.35324Z" stroke="white" stroke-width="2.14286" stroke-linecap="round" stroke-linejoin="round"/>
<path d="M28.4995 18.8551V16.9265C28.4995 13.731 25.9093 11.1406 22.7138 11.1406C20.5348 11.1406 18.6372 12.3451 17.6504 14.1246" stroke="white" stroke-width="2.14286" stroke-linecap="round" stroke-linejoin="round"/>
<path d="M3.42773 5.35324C3.42773 6.37621 3.83411 7.35729 4.55747 8.08065C5.28082 8.804 6.2619 9.21038 7.28488 9.21038C8.30786 9.21038 9.28894 8.804 10.0123 8.08065C10.7356 7.35729 11.142 6.37621 11.142 5.35324C11.142 4.33026 10.7356 3.34918 10.0123 2.62582C9.28894 1.90247 8.30786 1.49609 7.28488 1.49609C6.2619 1.49609 5.28082 1.90247 4.55747 2.62582C3.83411 3.34918 3.42773 4.33026 3.42773 5.35324Z" stroke="white" stroke-width="2.14286" stroke-linecap="round" stroke-linejoin="round"/>
<path d="M1.49805 18.8551V16.9265C1.49805 13.731 4.08846 11.1406 7.28389 11.1406C9.46285 11.1406 11.3605 12.3451 12.3473 14.1246" stroke="white" stroke-width="2.14286" stroke-linecap="round" stroke-linejoin="round"/>
<path d="M11.1465 16.9235C11.1465 17.9465 11.5529 18.9276 12.2762 19.651C12.9996 20.3743 13.9806 20.7807 15.0036 20.7807C16.0266 20.7807 17.0077 20.3743 17.731 19.651C18.4544 18.9276 18.8608 17.9465 18.8608 16.9235C18.8608 15.9006 18.4544 14.9195 17.731 14.1961C17.0077 13.4728 16.0266 13.0664 15.0036 13.0664C13.9806 13.0664 12.9996 13.4728 12.2762 14.1961C11.5529 14.9195 11.1465 15.9006 11.1465 16.9235Z" stroke="white" stroke-width="2.14286" stroke-linecap="round" stroke-linejoin="round"/>
<path d="M20.7865 28.4927C20.7865 25.2973 18.1961 22.707 15.0007 22.707C11.8052 22.707 9.21484 25.2973 9.21484 28.4927" stroke="white" stroke-width="2.14286" stroke-linecap="round" stroke-linejoin="round"/>
</g>
<defs>
<clipPath id="clip0_5586_20164">
<rect width="30" height="30" fill="white"/>
</clipPath>
</defs>
</svg>
