<svg width="15" height="14" viewBox="0 0 15 14" fill="none" xmlns="http://www.w3.org/2000/svg">
<path d="M6.65699 0.400735C6.8306 -0.1336 7.58654 -0.1336 7.76016 0.400735L9.06409 4.41383C9.14174 4.65279 9.36442 4.81458 9.61568 4.81458H13.8353C14.3971 4.81458 14.6307 5.53352 14.1762 5.86376L10.7625 8.34399C10.5592 8.49168 10.4741 8.75346 10.5518 8.99242L11.8557 13.0055C12.0293 13.5399 11.4177 13.9842 10.9632 13.6539L7.54947 11.1737C7.3462 11.026 7.07095 11.026 6.86767 11.1737L3.45393 13.6539C2.9994 13.9842 2.38783 13.5399 2.56144 13.0055L3.86538 8.99242C3.94302 8.75346 3.85796 8.49168 3.65469 8.34399L0.240948 5.86376C-0.213584 5.53352 0.0200142 4.81458 0.581847 4.81458H4.80147C5.05272 4.81458 5.27541 4.65279 5.35305 4.41383L6.65699 0.400735Z" fill="#D9D9D9"/>
<path d="M6.65699 0.400735C6.8306 -0.1336 7.58654 -0.1336 7.76016 0.400735L9.06409 4.41383C9.14174 4.65279 9.36442 4.81458 9.61568 4.81458H13.8353C14.3971 4.81458 14.6307 5.53352 14.1762 5.86376L10.7625 8.34399C10.5592 8.49168 10.4741 8.75346 10.5518 8.99242L11.8557 13.0055C12.0293 13.5399 11.4177 13.9842 10.9632 13.6539L7.54947 11.1737C7.3462 11.026 7.07095 11.026 6.86767 11.1737L3.45393 13.6539C2.9994 13.9842 2.38783 13.5399 2.56144 13.0055L3.86538 8.99242C3.94302 8.75346 3.85796 8.49168 3.65469 8.34399L0.240948 5.86376C-0.213584 5.53352 0.0200142 4.81458 0.581847 4.81458H4.80147C5.05272 4.81458 5.27541 4.65279 5.35305 4.41383L6.65699 0.400735Z" fill="url(#paint0_linear_5622_20795)"/>
<defs>
<linearGradient id="paint0_linear_5622_20795" x1="15.6203" y1="14.7031" x2="-6.10017" y2="11.8881" gradientUnits="userSpaceOnUse">
<stop stop-color="#FFD60A"/>
<stop offset="1" stop-color="#FFF4BB"/>
</linearGradient>
</defs>
</svg>
