<svg width="124" height="48" viewBox="0 0 124 48" fill="none" xmlns="http://www.w3.org/2000/svg">
<path d="M40.4473 41.4734C30.7944 50.5564 15.6101 50.0944 6.52706 40.4415C-2.55595 30.7945 -2.094 15.6042 7.55895 6.5212C17.2119 -2.56181 32.3962 -2.09986 41.4792 7.55309C50.5622 17.206 50.1003 32.3904 40.4473 41.4734Z" fill="url(#paint0_linear_5586_19965)"/>
<path d="M0.427162 19.4743C7.80036 18.5264 15.5095 21.0041 20.9929 26.8295C26.4763 32.6548 28.4801 40.502 27.0882 47.8032C19.7151 48.7511 12.0059 46.2733 6.5225 40.448C1.0391 34.6166 -0.964686 26.7755 0.427162 19.4743Z" fill="url(#paint1_linear_5586_19965)"/>
<path d="M29.9264 10.9844L30.7903 14.122C31.1323 15.3759 32.1162 16.3478 33.364 16.6898L36.5077 17.5417L33.37 18.4056C32.1162 18.7475 31.1443 19.7314 30.8023 20.9793L29.9504 24.1229L29.0865 20.9853C28.7446 19.7314 27.7607 18.7595 26.5128 18.4176L23.3691 17.5657L26.5068 16.7018C27.7607 16.3598 28.7326 15.3759 29.0745 14.128L29.9264 10.9844Z" fill="white"/>
<path d="M67.5395 26.424H69.8972V36.5089H68.0554V28.9077L64.9898 35.069H63.3039L60.2383 29.0697V36.5029H58.3965V26.418H60.7542L64.1739 33.2212L67.5335 26.418L67.5395 26.424Z" fill="white"/>
<path d="M73.977 35.0207H79.7604V36.5146H72.0332V26.4297H79.6944V27.9235H73.977V30.6112H78.9864V32.1051H73.977V35.0267V35.0207Z" fill="white"/>
<path d="M84.4894 36.5146V27.9895H80.8418V26.4297H90.0988V27.9895H86.4512V36.5146H84.4894Z" fill="white"/>
<path d="M98.3275 36.5153L95.3218 32.6637H95.0819C94.6619 32.6637 94.188 32.6457 93.666 32.6097V36.5153H91.7402V26.6884C92.2322 26.5744 92.7721 26.4844 93.3601 26.4184C93.948 26.3524 94.5299 26.3164 95.0999 26.3164C96.6357 26.3164 97.7816 26.5684 98.5315 27.0783C99.2814 27.5823 99.6594 28.3862 99.6594 29.4721C99.6594 30.222 99.4554 30.8459 99.0534 31.3379C98.6515 31.8298 98.0575 32.1838 97.2836 32.4057L100.529 36.5213H98.3335L98.3275 36.5153ZM93.666 31.1699C94.182 31.2239 94.6859 31.2539 95.1659 31.2539C96.0898 31.2539 96.7617 31.1099 97.1876 30.8279C97.6136 30.5459 97.8236 30.096 97.8236 29.4841C97.8236 29.0581 97.7336 28.7161 97.5536 28.4582C97.3736 28.2002 97.0977 28.0082 96.7197 27.8942C96.3477 27.7742 95.8558 27.7143 95.2499 27.7143C94.7219 27.7143 94.194 27.7622 93.66 27.8642V31.1759L93.666 31.1699Z" fill="white"/>
<path d="M102.305 36.5146V26.4297H104.266V36.5146H102.305Z" fill="white"/>
<path d="M107.436 35.3739C106.459 34.528 105.973 33.2381 105.973 31.4863C105.973 30.3644 106.201 29.4165 106.645 28.6426C107.095 27.8687 107.748 27.2808 108.612 26.8908C109.476 26.4949 110.526 26.2969 111.762 26.2969C112.62 26.2969 113.454 26.3929 114.258 26.5848V28.1807C113.502 28.0007 112.716 27.9107 111.9 27.9107C110.598 27.9107 109.626 28.1987 108.984 28.7746C108.348 29.3505 108.024 30.2504 108.024 31.4683C108.024 32.6862 108.336 33.6221 108.966 34.186C109.596 34.756 110.532 35.0379 111.78 35.0379C112.62 35.0379 113.442 34.9239 114.252 34.696V36.2918C113.454 36.5258 112.59 36.6457 111.66 36.6457C109.818 36.6457 108.402 36.2258 107.431 35.3799L107.436 35.3739Z" fill="white"/>
<path d="M115.786 36.1859V34.6201C116.248 34.776 116.764 34.896 117.334 34.98C117.904 35.064 118.426 35.106 118.912 35.106C119.722 35.106 120.304 34.986 120.67 34.746C121.036 34.5061 121.216 34.1581 121.216 33.6902C121.216 33.4322 121.156 33.2162 121.042 33.0482C120.928 32.8802 120.736 32.7363 120.478 32.6223C120.214 32.5083 119.854 32.4063 119.392 32.3163L118.636 32.1723C117.568 31.9623 116.794 31.6264 116.302 31.1584C115.81 30.6905 115.57 30.0726 115.57 29.2926C115.57 28.3387 115.942 27.6008 116.68 27.0789C117.418 26.5569 118.516 26.293 119.956 26.293C120.94 26.293 121.834 26.407 122.638 26.6349V28.2008C122.254 28.0808 121.834 27.9908 121.372 27.9308C120.91 27.8648 120.448 27.8348 119.986 27.8348C119.116 27.8348 118.486 27.9548 118.096 28.1948C117.706 28.4347 117.508 28.7767 117.508 29.2266C117.508 29.4786 117.556 29.6886 117.658 29.8506C117.76 30.0186 117.922 30.1625 118.156 30.2705C118.39 30.3845 118.714 30.4805 119.128 30.5645L119.884 30.7085C120.664 30.8645 121.294 31.0684 121.774 31.3264C122.254 31.5844 122.602 31.8964 122.818 32.2683C123.033 32.6403 123.147 33.0842 123.147 33.5882C123.147 34.2241 122.98 34.77 122.638 35.226C122.302 35.6819 121.81 36.0299 121.168 36.2699C120.526 36.5098 119.764 36.6298 118.876 36.6298C117.766 36.6298 116.734 36.4799 115.768 36.1739L115.786 36.1859Z" fill="white"/>
<path d="M61.2433 21.9951V13.47H57.5957V11.9102H66.8467V13.47H63.1991V21.9951H61.2373H61.2433Z" fill="white"/>
<path d="M69.6018 21.5362C68.8218 21.1462 68.2219 20.5583 67.8019 19.7844C67.382 19.0105 67.166 18.0686 67.166 16.9527C67.166 15.8368 67.376 14.8949 67.8019 14.121C68.2279 13.3471 68.8278 12.7651 69.6077 12.3692C70.3877 11.9732 71.3056 11.7812 72.3614 11.7812C73.4173 11.7812 74.3472 11.9792 75.1271 12.3752C75.9071 12.7711 76.513 13.3531 76.9329 14.127C77.3529 14.9009 77.5689 15.8428 77.5689 16.9527C77.5689 18.0626 77.3529 19.0045 76.927 19.7784C76.501 20.5523 75.8951 21.1402 75.1151 21.5302C74.3352 21.9261 73.4173 22.1241 72.3614 22.1241C71.3056 22.1241 70.3757 21.9261 69.5958 21.5362H69.6018ZM74.7252 19.6764C75.2831 19.0825 75.5591 18.1945 75.5591 17.0007C75.5591 15.8068 75.2771 14.8529 74.7192 14.253C74.1553 13.653 73.3753 13.3531 72.3675 13.3531C71.3596 13.3531 70.5736 13.647 70.0157 14.235C69.4578 14.8229 69.1758 15.7168 69.1758 16.9167C69.1758 18.1166 69.4518 19.0765 70.0097 19.6704C70.5676 20.2643 71.3536 20.5643 72.3734 20.5643C73.3933 20.5643 74.1793 20.2703 74.7372 19.6764H74.7252Z" fill="white"/>
<path d="M86.1805 21.9951L82.8808 17.6755H81.495V21.9951H79.5332V11.9102H81.495V15.9837H82.8868L85.9405 11.9102H88.0403L84.3927 16.7876L88.3582 21.9951H86.1805Z" fill="white"/>
<path d="M91.6684 20.5012H97.4518V21.9951H89.7246V11.9102H97.3858V13.404H91.6684V16.0917H96.6778V17.5855H91.6684V20.5072V20.5012Z" fill="white"/>
<path d="M106.837 11.9102H108.691V21.9951H106.711L101.192 14.6039V21.9951H99.3379V11.9102H101.324L106.843 19.3013V11.9102H106.837Z" fill="white"/>
<defs>
<linearGradient id="paint0_linear_5586_19965" x1="97.4952" y1="-32.4964" x2="21.5035" y2="26.4971" gradientUnits="userSpaceOnUse">
<stop stop-color="#60799E"/>
<stop offset="1" stop-color="#222B38"/>
</linearGradient>
<linearGradient id="paint1_linear_5586_19965" x1="21.5016" y1="26.4982" x2="4.00347" y2="42.4965" gradientUnits="userSpaceOnUse">
<stop stop-color="#FFD60A"/>
<stop offset="1" stop-color="#998006"/>
</linearGradient>
</defs>
</svg>
