<svg width="19" height="11" viewBox="0 0 19 11" fill="none" xmlns="http://www.w3.org/2000/svg">
<path d="M12.9746 0.244141C13.3 -0.0810944 13.8269 -0.0810618 14.1523 0.244141L18.5332 4.62402C18.6894 4.78023 18.7773 4.99297 18.7773 5.21387C18.7773 5.4347 18.6893 5.64654 18.5332 5.80273L14.1523 10.1836C13.827 10.5086 13.3 10.5086 12.9746 10.1836C12.6494 9.85814 12.6492 9.33026 12.9746 9.00488L15.9229 6.05469L0.833008 6.05469C0.37292 6.05451 0 5.68181 0 5.22168C0 4.76155 0.37292 4.38885 0.833008 4.38867L15.9404 4.38867L12.9746 1.42188C12.6494 1.09642 12.6492 0.569516 12.9746 0.244141Z" fill="black"/>
</svg>
