<svg width="30" height="30" viewBox="0 0 30 30" fill="none" xmlns="http://www.w3.org/2000/svg">
<path d="M28.3498 13.3833C28.7051 13.8262 28.9018 14.4017 28.9018 14.9985C28.9018 15.5952 28.7051 16.1707 28.3498 16.6137C26.0998 19.3378 20.9783 24.6414 14.9997 24.6414C9.02117 24.6414 3.89974 19.3378 1.64974 16.6137C1.29437 16.1707 1.09766 15.5952 1.09766 14.9985C1.09766 14.4017 1.29437 13.8262 1.64974 13.3833C3.89974 10.6591 9.02117 5.35547 14.9997 5.35547C20.9783 5.35547 26.0998 10.6591 28.3498 13.3833Z" stroke="white" stroke-width="2.14286" stroke-linecap="round" stroke-linejoin="round"/>
<path d="M15.0006 19.2863C17.3675 19.2863 19.2863 17.3675 19.2863 15.0006C19.2863 12.6336 17.3675 10.7148 15.0006 10.7148C12.6336 10.7148 10.7148 12.6336 10.7148 15.0006C10.7148 17.3675 12.6336 19.2863 15.0006 19.2863Z" stroke="white" stroke-width="2.14286" stroke-linecap="round" stroke-linejoin="round"/>
</svg>
