<svg width="30" height="30" viewBox="0 0 30 30" fill="none" xmlns="http://www.w3.org/2000/svg">
<g clip-path="url(#clip0_5617_20598)">
<path d="M27.4703 8.03795L21.4275 10.7165V7.50223C21.4275 6.9339 21.2017 6.38887 20.7998 5.987C20.398 5.58515 19.8529 5.35938 19.2846 5.35938H3.21317C2.64484 5.35938 2.09981 5.58515 1.69794 5.987C1.29608 6.38887 1.07031 6.9339 1.07031 7.50223V22.5022C1.07031 23.0705 1.29608 23.6157 1.69794 24.0174C2.09981 24.4192 2.64484 24.6451 3.21317 24.6451H19.2846C19.8529 24.6451 20.398 24.4192 20.7998 24.0174C21.2017 23.6157 21.4275 23.0705 21.4275 22.5022V19.2879L27.4703 21.9665C27.6332 22.0293 27.8091 22.0516 27.9825 22.0308C28.1558 22.0102 28.3217 21.9477 28.4652 21.8482C28.6088 21.749 28.726 21.6162 28.8066 21.4612C28.8872 21.3063 28.9287 21.134 28.9275 20.9594V9.04509C28.9287 8.87047 28.8872 8.69818 28.8066 8.54325C28.726 8.38832 28.6088 8.25543 28.4652 8.15615C28.3217 8.05685 28.1558 7.99419 27.9825 7.97357C27.8091 7.95298 27.6332 7.97507 27.4703 8.03795Z" stroke="#FFFEFE" stroke-width="2.14286" stroke-linecap="round" stroke-linejoin="round"/>
</g>
<defs>
<clipPath id="clip0_5617_20598">
<rect width="30" height="30" fill="white"/>
</clipPath>
</defs>
</svg>
